<?xml version="1.0" encoding="utf-8"?>
<!-- Generator: Adobe Illustrator 27.3.1, SVG Export Plug-In . SVG Version: 6.00 Build 0)  -->
<svg version="1.1" id="Calque_1" xmlns="http://www.w3.org/2000/svg" x="0px" y="0px"
	 viewBox="0 0 655.7 255" style="enable-background:new 0 0 655.7 255;" xml:space="preserve">
<style type="text/css">
	.st0{fill:#CB3837;}
	.st1{fill:#FFFFFF;}
	.st2{fill:#3AAA35;}
</style>
<path class="st0" d="M51.4,20h540v180h-270v30h-120v-30h-150L51.4,20L51.4,20z M81.4,170h60V80h30v90h30V50h-120
	C81.4,50,81.4,170,81.4,170z M231.4,50v150h60v-30h60V50H231.4z M291.4,80h30v60h-30V80z M381.4,50v120h60V80h30v90h30V80h30v90h30
	V50H381.4z"/>
<polygon class="st1" points="81.4,170 141.4,170 141.4,80 171.4,80 171.4,170 201.4,170 201.4,50 81.4,50 "/>
<path class="st1" d="M231.4,50v150h60v-30h60V50H231.4z M321.4,140h-30V80h30V140z"/>
<polygon class="st1" points="381.4,50 381.4,170 441.4,170 441.4,80 471.4,80 471.4,170 501.4,170 501.4,80 531.4,80 531.4,170
	561.4,170 561.4,50 "/>
<g>
	<g>
		<ellipse transform="matrix(0.7071 -0.7071 0.7071 0.7071 50.2934 431.3513)" class="st2" cx="545.8" cy="155" rx="75" ry="75"/>
		<path class="st1" d="M580.8,138.4L554,111.7c-2.3-2.3-5.3-3.4-8.3-3.3c-2.9,0-5.8,1.1-8,3.3L511,138.4c-4.4,4.4-4.4,11.5,0,15.9
			l0.4,0.4c4.4,4.4,11.5,4.4,15.9,0l5.8-5.8v39.6c0,7.2,5.8,12.9,12.9,12.9s12.9-5.8,12.9-12.9v-39.2l5.4,5.4
			c4.4,4.4,11.5,4.4,15.9,0l0.5-0.5C585.2,149.9,585.2,142.9,580.8,138.4L580.8,138.4z"/>
	</g>
</g>
</svg>
