<?xml version="1.0" encoding="utf-8"?>
<!-- Generator: Adobe Illustrator 27.3.1, SVG Export Plug-In . SVG Version: 6.00 Build 0)  -->
<svg version="1.1" id="Calque_1" xmlns="http://www.w3.org/2000/svg" x="0px" y="0px"
	 viewBox="0 0 655.7 255" style="enable-background:new 0 0 655.7 255;" xml:space="preserve">
<style type="text/css">
	.st0{fill:#CB3837;}
	.st1{fill:#FFFFFF;}
	.st2{fill:#3AAA35;}
</style>
<path class="st0" d="M51.4,20h540v180h-270v30h-120v-30h-150V20z M81.4,170h60V80h30v90h30V50h-120V170z M231.4,50v150h60v-30h60V50
	H231.4z M291.4,80h30v60h-30V80z M381.4,50v120h60V80h30v90h30V80h30v90h30V50H381.4z"/>
<polygon class="st1" points="81.4,170 141.4,170 141.4,80 171.4,80 171.4,170 201.4,170 201.4,50 81.4,50 "/>
<path class="st1" d="M231.4,50v150h60v-30h60V50H231.4z M321.4,140h-30V80h30V140z"/>
<polygon class="st1" points="381.4,50 381.4,170 441.4,170 441.4,80 471.4,80 471.4,170 501.4,170 501.4,80 531.4,80 531.4,170
	561.4,170 561.4,50 "/>
<g>
	<g id="Flèche_00000164504560347961529750000008785524390616684983_">
		<circle class="st2" cx="561.4" cy="170" r="59.4"/>
		<path class="st1" d="M589.1,156.9l-21.2-21.2c-1.8-1.8-4.2-2.7-6.6-2.6c-2.3,0-4.6,0.9-6.3,2.6l-21.2,21.2
			c-3.5,3.5-3.5,9.1,0,12.6l0.3,0.3c3.5,3.5,9.1,3.5,12.6,0l4.6-4.6v31.4c0,5.7,4.6,10.2,10.2,10.2s10.2-4.6,10.2-10.2v-31.1
			l4.3,4.3c3.5,3.5,9.1,3.5,12.6,0l0.4-0.4C592.6,166,592.6,160.4,589.1,156.9L589.1,156.9z"/>
	</g>
</g>
</svg>
