<?xml version="1.0" encoding="utf-8"?>
<!-- Generator: Adobe Illustrator 27.3.1, SVG Export Plug-In . SVG Version: 6.00 Build 0)  -->
<svg version="1.1" id="Calque_1" xmlns="http://www.w3.org/2000/svg" x="0px" y="0px"
	 viewBox="0 0 16 16" style="enable-background:new 0 0 16 16;" xml:space="preserve">
<style type="text/css">
	.st0{fill:#CB3838;}
	.st1{fill:#3AAA35;}
	.st2{fill:#FFFFFF;}
</style>
<g>
	<path class="st0" d="M2,2h12v12H2V2z M3.5,3.5v9h9v-9H3.5z"/>
	<rect x="8.5" y="6.5" class="st0" width="2" height="6"/>
</g>
<g>
	<g id="Flèche_00000137823737290640798840000010974739115350729867_">
		<circle class="st1" cx="12.5" cy="12.2" r="2.7"/>
		<path class="st2" d="M13.8,11.6l-1-1c-0.1-0.1-0.2-0.1-0.3-0.1c-0.1,0-0.2,0-0.3,0.1l-1,1c-0.2,0.2-0.2,0.4,0,0.6l0,0
			c0.2,0.2,0.4,0.2,0.6,0L12,12v1.4c0,0.3,0.2,0.5,0.5,0.5c0.3,0,0.5-0.2,0.5-0.5V12l0.2,0.2c0.2,0.2,0.4,0.2,0.6,0l0,0
			C13.9,12,13.9,11.8,13.8,11.6L13.8,11.6z"/>
	</g>
</g>
</svg>
