<?xml version="1.0" encoding="utf-8"?>
<!-- Generator: Adobe Illustrator 27.3.1, SVG Export Plug-In . SVG Version: 6.00 Build 0)  -->
<svg version="1.1" id="Calque_1" xmlns="http://www.w3.org/2000/svg" x="0px" y="0px"
	 viewBox="0 0 16 16" style="enable-background:new 0 0 16 16;" xml:space="preserve">
<style type="text/css">
	.st0{fill:#CB3838;}
	.st1{fill:#3AAA35;}
	.st2{fill:#FFFFFF;}
</style>
<g>
	<path class="st0" d="M2,2h12v12H2V2z M3.5,3.5v9h9v-9H3.5z"/>
	<rect x="8.5" y="6.5" class="st0" width="2" height="6"/>
</g>
<g>
	<g>
		<circle class="st1" cx="11.4" cy="10.7" r="4.2"/>
		<path class="st2" d="M13.5,9.8l-1.6-1.6c-0.2-0.2-0.3-0.2-0.5-0.2c-0.2,0-0.3,0-0.5,0.2L9.4,9.8c-0.3,0.3-0.3,0.6,0,0.9l0,0
			c0.3,0.3,0.6,0.3,0.9,0l0.3-0.3v2.2c0,0.5,0.3,0.8,0.8,0.8s0.8-0.3,0.8-0.8v-2.2l0.3,0.3c0.3,0.3,0.6,0.3,0.9,0l0,0
			C13.6,10.4,13.6,10.1,13.5,9.8L13.5,9.8z"/>
	</g>
</g>
</svg>
